# xmcd
#
# Track frame offsets:
#	150
#	22857
#	50476
#	83089
#	104297
#	130378
#	154321
#	188018
#	214467
#
# Disc length: 3132 seconds
#
# Revision: 0
# Processed by: cddbd v1.5.2PL0 Copyright (c) Steve Scherf et al.
# Submitted via: EasyCDDAExtractor 9.0.0.1
#
DISCID=750c3a09
DTITLE=Tasavallan Presidentti - SIX Complete
DYEAR=1900
DGENRE=
TTITLE0=Take Six
TTITLE1=Last Night
TTITLE2=Chesterfield Blue
TTITLE3=Don't Ask Why
TTITLE4=Climb The Ladder
TTITLE5=The Maze
TTITLE6=Dance
TTITLE7=Five Leaves Left
TTITLE8=Blast From The Past
EXTD=
EXTT0=
EXTT1=
EXTT2=
EXTT3=
EXTT4=
EXTT5=
EXTT6=
EXTT7=
EXTT8=
PLAYORDER=
